<svg width="54" height="33" viewBox="0 0 54 33" fill="none" xmlns="http://www.w3.org/2000/svg">
<path d="M6.40057 32.5114C4.82386 32.5114 3.47088 31.9467 2.34162 30.8175C1.21236 29.6882 0.647728 28.3352 0.647728 26.7585C0.647728 25.1818 1.21236 23.8288 2.34162 22.6996C3.47088 21.5703 4.82386 21.0057 6.40057 21.0057C7.97727 21.0057 9.33026 21.5703 10.4595 22.6996C11.5888 23.8288 12.1534 25.1818 12.1534 26.7585C12.1534 27.8026 11.8871 28.7614 11.3544 29.6349C10.843 30.5085 10.1506 31.2116 9.27699 31.7443C8.42472 32.2557 7.46591 32.5114 6.40057 32.5114ZM53.8136 0.423295V7.45454H25.1772V0.423295H53.8136Z" fill="black"/>
</svg>
